<?xml version="1.0" standalone="no"?>
<!DOCTYPE svg PUBLIC "-//W3C//DTD SVG 1.1//EN" "http://www.w3.org/Graphics/SVG/1.1/DTD/svg11.dtd" >
<svg xmlns="http://www.w3.org/2000/svg" xmlns:xlink="http://www.w3.org/1999/xlink" version="1.1">
<metadata>
Created by FontForge 20170731 at Fri Jul 21 00:06:11 2000
 By Aleksey,,,
Copyright 1990-1993 Bitstream Inc.  All rights reserved.
</metadata>
<defs>
<font id="ZurichBlackExtendedBT" horiz-adv-x="1024" >
  <font-face 
    font-family="Zurich"
    font-weight="400"
    font-stretch="expanded"
    units-per-em="2048"
    panose-1="2 11 8 7 4 5 2 3 2 4"
    ascent="1638"
    descent="-410"
    x-height="1028"
    cap-height="1475"
    bbox="-342 -483 2855 1937"
    underline-thickness="262"
    underline-position="-622"
    unicode-range="U+0020-F002"
  />
<missing-glyph 
d="M128 0v1937h768v-1937h-768zM256 128h512v1681h-512v-1681z" />
    <glyph glyph-name=".notdef" 
d="M128 0v1937h768v-1937h-768zM256 128h512v1681h-512v-1681z" />
    <glyph glyph-name=".null" horiz-adv-x="0" 
 />
    <glyph glyph-name="nonmarkingreturn" horiz-adv-x="778" 
 />
    <glyph glyph-name="space" unicode=" " horiz-adv-x="778" 
 />
    <glyph glyph-name="exclam" unicode="!" horiz-adv-x="825" 
d="M569 420h-315l-64 1055h443zM221 0v317h383v-317h-383z" />
    <glyph glyph-name="quotedbl" unicode="&#x22;" horiz-adv-x="713" 
d="M416 1438h223v-561h-223v561zM76 1438h219v-561h-219v561z" />
    <glyph glyph-name="numbersign" unicode="#" horiz-adv-x="1575" 
d="M707 842l-82 -232h245l82 232h-245zM684 1466h250l-139 -393h235l141 393h250l-139 -393h270l-86 -231h-268l-80 -230h277l-84 -231h-275l-141 -393h-250l139 393h-235l-141 -393h-250l139 393h-274l86 231h270l82 230h-283l86 231h279z" />
    <glyph glyph-name="dollar" unicode="$" horiz-adv-x="1554" 
d="M854 228q244 6 244 157q0 88 -83 132q-49 26 -161 46v-335zM688 1208q-219 -2 -219 -151q0 -80 74 -123q45 -26 145 -47v321zM51 450l395 1q19 -213 242 -224v359q-276 46 -393 109q-197 105 -197 323q0 402 590 410v159h166v-160q592 -12 612 -405h-381
q-12 171 -231 186v-342q286 -44 419 -113q216 -112 216 -339q0 -398 -635 -414v-176h-166v176q-627 10 -637 450z" />
    <glyph glyph-name="percent" unicode="%" horiz-adv-x="2009" 
d="M1391 383q0 -103 26 -151q36 -64 129 -64q92 0 128 65q26 48 26 150q0 217 -154 217q-92 0 -128 -66q-27 -49 -27 -151zM1151 383q0 383 395 383q398 0 398 -383t-398 -383q-395 0 -395 383zM307 1044q0 -103 27 -152q36 -65 129 -65q92 0 127 66q26 49 26 151
q0 218 -153 218q-156 0 -156 -218zM66 1044q0 383 397 383t397 -383q0 -385 -397 -385t-397 385zM588 -25h-234l1071 1475h234z" />
    <glyph glyph-name="ampersand" unicode="&#x26;" horiz-adv-x="2091" 
d="M1661 0h-776q-333 0 -484 53q-121 43 -190.5 141.5t-69.5 227.5q0 271 348 354q-138 56 -202 120q-84 84 -84 212q0 391 573 391q114 0 346 -18v-250q-165 16 -254 16q-270 0 -270 -172q0 -116 153 -146q54 -11 242 -11h279v241h389v-241h326v-275h-326v-643zM1272 289
v377h-291q-201 0 -268 -16q-160 -38 -160 -173q0 -128 164 -168q79 -20 264 -20h291z" />
    <glyph glyph-name="quotesingle" unicode="'" horiz-adv-x="371" 
d="M76 1438h219v-561h-219v561z" />
    <glyph glyph-name="parenleft" unicode="(" horiz-adv-x="829" 
d="M768 -289h-303q-322 483 -322 889q0 413 322 897h303q-268 -538 -268 -897q0 -349 268 -889z" />
    <glyph glyph-name="parenright" unicode=")" horiz-adv-x="829" 
d="M63 -289q269 538 269 889q0 361 -269 897h304q321 -482 321 -897q0 -407 -321 -889h-304z" />
    <glyph glyph-name="asterisk" unicode="*" horiz-adv-x="1255" 
d="M723 1497l199 -135l-230 -211l301 78v-234l-301 78l230 -203l-199 -141l-94 307l-97 -309l-192 135l223 211l-301 -78v234l301 -78l-225 213l192 133l99 -299z" />
    <glyph glyph-name="plus" unicode="+" horiz-adv-x="1706" 
d="M735 1221h238v-494h479v-231h-479v-496h-238v496h-481v231h481v494z" />
    <glyph glyph-name="comma" unicode="," horiz-adv-x="778" 
d="M86 -231l156 526h395l-279 -526h-272z" />
    <glyph glyph-name="hyphen" unicode="-" horiz-adv-x="909" 
d="M80 338v352h749v-352h-749z" />
    <glyph glyph-name="hyphen" unicode="&#x2010;" horiz-adv-x="909" 
d="M80 338v352h749v-352h-749z" />
    <glyph glyph-name="period" unicode="." horiz-adv-x="778" 
d="M186 0v322h404v-322h-404z" />
    <glyph glyph-name="slash" unicode="/" horiz-adv-x="834" 
d="M608 1497h238l-658 -1687h-241z" />
    <glyph glyph-name="zero" unicode="0" horiz-adv-x="1554" 
d="M510 713q0 -215 35 -320q60 -176 231 -176t232 176q36 106 36 320t-36 319q-61 176 -232 176q-170 0 -230 -176q-36 -105 -36 -319zM80 713q0 354 169 541q177 196 527 196q349 0 528 -196q171 -188 171 -541q0 -354 -171 -542q-179 -196 -528 -196t-526 196
q-170 188 -170 542z" />
    <glyph glyph-name="one" unicode="1" horiz-adv-x="1554" 
d="M1098 0h-410v1036q-165 -106 -420 -170v334q271 101 469 227h361v-1427z" />
    <glyph glyph-name="two" unicode="2" horiz-adv-x="1554" 
d="M1415 0h-1331v303q359 181 653 387q117 82 160 128q78 84 78 181q0 177 -217 177q-207 0 -213 -205h-422q0 479 629 479q266 0 438 -91q221 -116 221 -358q0 -237 -282 -451q-152 -116 -486 -276h772v-274z" />
    <glyph glyph-name="three" unicode="3" horiz-adv-x="1554" 
d="M639 602v258h25q299 0 299 164q0 168 -199 168q-204 0 -223 -153l-426 -1q19 227 222 331q158 81 411 81q262 0 424 -75q221 -102 221 -333q0 -260 -338 -305q167 -17 265 -96q114 -92 114 -250q0 -416 -693 -416q-661 0 -675 449h431q4 -191 251 -191t247 189
q0 184 -272 184q-56 0 -77 -3z" />
    <glyph glyph-name="four" unicode="4" horiz-adv-x="1554" 
d="M1253 0h-397v299h-811v340l713 788h495v-860h267v-268h-267v-299zM856 567v539q-215 -283 -481 -539h481z" />
    <glyph glyph-name="five" unicode="5" horiz-adv-x="1554" 
d="M551 567h-404l43 860h1139v-276h-774l-27 -342q146 129 385 129q243 0 385 -111q158 -123 158 -358q0 -270 -220 -395q-175 -99 -468 -99q-649 0 -653 430l409 1q17 -164 238 -164q256 0 256 225q0 106 -65 167q-64 58 -171 58q-172 0 -231 -125z" />
    <glyph glyph-name="six" unicode="6" horiz-adv-x="1554" 
d="M1446 1067h-436q-26 135 -213 135q-285 0 -285 -319q0 -33 2 -49q186 116 414 116q242 0 395 -113q172 -127 172 -360q0 -267 -228 -397q-183 -105 -472 -105q-344 0 -529.5 189.5t-185.5 533.5q0 754 758 754q552 0 608 -385zM530 467q0 -110 78 -167q69 -50 183 -50
q256 0 256 211q0 110 -72 170q-68 57 -180 57q-113 0 -184 -53q-81 -59 -81 -168z" />
    <glyph glyph-name="seven" unicode="7" horiz-adv-x="1554" 
d="M754 0h-492l717 1139h-860v288h1294v-327z" />
    <glyph glyph-name="eight" unicode="8" horiz-adv-x="1554" 
d="M442 741q-325 63 -325 310q0 223 235 325q170 74 426 74t425 -74q233 -102 233 -325q0 -246 -324 -310q158 -24 254 -101q113 -91 113 -239q0 -241 -248 -349q-178 -77 -455 -77t-455 78q-247 107 -247 348q0 148 114 239q96 77 254 101zM532 1018q0 -158 244 -158
q246 0 246 158q0 178 -244 178q-101 0 -166 -38q-80 -46 -80 -140zM496 424q0 -188 280 -188q283 0 283 188q0 103 -95 153q-74 39 -188 39q-280 0 -280 -192z" />
    <glyph glyph-name="nine" unicode="9" horiz-adv-x="1554" 
d="M109 360h436q24 -135 213 -135q286 0 286 320q0 31 -2 47q-186 -117 -415 -117q-242 0 -396 113q-172 126 -172 360q0 267 228 397q184 105 473 105q343 0 529 -188.5t186 -532.5q0 -754 -756 -754q-555 0 -610 385zM1024 958q0 110 -77 168q-69 52 -183 52
q-256 0 -256 -213q0 -110 72 -170q67 -56 180 -56q112 0 184 52q80 59 80 167z" />
    <glyph glyph-name="colon" unicode=":" horiz-adv-x="825" 
d="M211 707v321h403v-321h-403zM211 0v322h403v-322h-403z" />
    <glyph glyph-name="semicolon" unicode=";" horiz-adv-x="825" 
d="M104 -233l156 526h393l-276 -526h-273zM211 707v321h403v-321h-403z" />
    <glyph glyph-name="less" unicode="&#x3c;" horiz-adv-x="1706" 
d="M1442 1214v-253l-854 -351l854 -348v-254l-1178 486v233z" />
    <glyph glyph-name="equal" unicode="=" horiz-adv-x="1706" 
d="M254 502h1198v-230h-1198v230zM254 950h1198v-231h-1198v231z" />
    <glyph glyph-name="greater" unicode="&#x3e;" horiz-adv-x="1706" 
d="M264 1214l1178 -487v-233l-1178 -486v254l854 348l-854 351v253z" />
    <glyph glyph-name="question" unicode="?" horiz-adv-x="1262" 
d="M334 420q0 9 -1 26.5t-1 26.5q0 110 29 179q32 74 114 139q41 32 131 90q174 111 174 198q0 152 -266 152q-201 0 -403 -66v283q229 43 454 43q627 0 627 -391q0 -120 -63 -208q-52 -74 -166 -147q-13 -8 -47 -29q-222 -138 -222 -280v-16h-360zM322 0v313h383v-313h-383
z" />
    <glyph glyph-name="at" unicode="@" horiz-adv-x="2048" 
d="M1161 262q-108 -158 -295 -158q-331 0 -331 345q0 227 129 391q140 176 362 176q154 0 229 -123l52 92h206l-153 -610q0 -1 -1 -6q-3 -16 -3 -27q0 -59 63 -59q157 0 257 168q87 144 87 311q0 258 -200 407q-180 134 -447 134q-297 0 -504 -146q-323 -228 -323 -631
q0 -318 219 -496q203 -165 528 -165q334 0 596 186l97 -135q-311 -233 -693 -233q-391 0 -643 194q-311 240 -311 643q0 341 209 598q303 373 827 373q353 0 580 -178q270 -212 270 -549q0 -341 -256 -547q-143 -115 -330 -115q-211 0 -221 160zM1198 696q-18 156 -160 156
q-123 0 -198 -150q-62 -123 -62 -258q0 -174 133 -174q90 0 155 66q58 58 81 151z" />
    <glyph glyph-name="A" unicode="A" horiz-adv-x="1868" 
d="M662 584h530l-252 567zM-57 0l768 1475h499l723 -1475h-475l-131 299h-803l-137 -299h-444z" />
    <glyph glyph-name="B" unicode="B" horiz-adv-x="1729" 
d="M573 621v-334h285q161 0 221 17q123 35 123 153q0 117 -124 149q-55 15 -220 15h-285zM573 1192v-311h254q142 0 200 18q108 34 108 143q0 106 -110 136q-51 14 -198 14h-254zM166 0v1475h747q313 0 443 -50q221 -85 221 -333q0 -249 -322 -320q379 -23 379 -356
q0 -202 -151 -310q-99 -71 -275 -93q-99 -13 -295 -13h-747z" />
    <glyph glyph-name="C" unicode="C" horiz-adv-x="1712" 
d="M1644 514q-18 -539 -722 -539q-392 0 -606 181q-228 195 -228 579q0 388 238 581q218 177 616 177q650 0 696 -504h-421q-34 209 -302 209q-401 0 -401 -455q0 -467 379 -467q295 0 328 238h423z" />
    <glyph glyph-name="D" unicode="D" horiz-adv-x="1915" 
d="M848 1151h-268v-829h268q255 0 381 76q160 97 160 333q0 420 -541 420zM166 0v1475h745q386 0 580 -109q332 -187 332 -645q0 -439 -320 -619q-120 -67 -288 -89q-102 -13 -304 -13h-745z" />
    <glyph glyph-name="E" unicode="E" horiz-adv-x="1518" 
d="M166 0v1475h1255v-314h-848v-256h807v-303h-807v-285h871v-317h-1278z" />
    <glyph glyph-name="F" unicode="F" horiz-adv-x="1475" 
d="M166 0v1475h1249v-314h-837v-297h792v-311h-792v-553h-412z" />
    <glyph glyph-name="G" unicode="G" horiz-adv-x="1849" 
d="M1331 303v244h-370v276h786v-747q-325 -101 -717 -101q-942 0 -942 750q0 393 260 591q232 177 639 177q730 0 760 -489h-451q-5 115 -110 173q-85 46 -211 46q-222 0 -340 -127q-113 -124 -113 -348q0 -488 496 -488q143 0 313 43z" />
    <glyph glyph-name="H" unicode="H" horiz-adv-x="1907" 
d="M166 1475h418v-570h739v570h418v-1475h-418v596h-739v-596h-418v1475z" />
    <glyph glyph-name="I" unicode="I" horiz-adv-x="768" 
d="M172 0v1475h422v-1475h-422z" />
    <glyph glyph-name="J" unicode="J" horiz-adv-x="1489" 
d="M469 537v-9q0 -132 46 -192q52 -68 179 -68q150 0 196 115q28 68 28 250v842h419v-875q0 -328 -177 -481q-167 -144 -501 -144q-612 0 -612 545v17h422z" />
    <glyph glyph-name="K" unicode="K" horiz-adv-x="1636" 
d="M166 0v1475h418v-631l585 631h492l-633 -654l684 -821h-543l-585 750v-750h-418z" />
    <glyph glyph-name="L" unicode="L" horiz-adv-x="1382" 
d="M166 0v1475h418v-1153h774v-322h-1192z" />
    <glyph glyph-name="M" unicode="M" horiz-adv-x="2460" 
d="M162 0v1475h639l454 -1104l471 1104h574v-1475h-354v1180l-494 -1180h-442l-488 1180v-1180h-360z" />
    <glyph glyph-name="N" unicode="N" horiz-adv-x="1913" 
d="M158 0v1475h547l675 -1061v1061h375v-1475h-549l-674 1057v-1057h-374z" />
    <glyph glyph-name="O" unicode="O" horiz-adv-x="1952" 
d="M518 723q0 -465 453 -465q461 0 461 457q0 502 -465 502q-221 0 -339 -139q-110 -129 -110 -355zM950 -27q-397 0 -620 183q-242 198 -242 585q0 383 266 582q238 176 635 176q402 0 628 -182q247 -199 247 -590q0 -396 -268 -587q-233 -167 -646 -167z" />
    <glyph glyph-name="P" unicode="P" horiz-adv-x="1597" 
d="M573 1184v-373h254q146 0 208 26q98 41 98 164q0 121 -100 160q-58 23 -206 23h-254zM166 0v1475h762q293 0 420 -72q204 -115 204 -404q0 -287 -209 -399q-97 -52 -239 -66q-73 -8 -250 -8h-281v-526h-407z" />
    <glyph glyph-name="Q" unicode="Q" horiz-adv-x="1987" 
d="M1518 0q-91 0 -272.5 -13.5t-272.5 -13.5q-408 0 -634 177q-251 196 -251 591q0 383 266 582q238 176 635 176q388 0 619 -177q256 -196 256 -572q0 -317 -283 -523q134 62 381 62h25v-289h-469zM518 719q0 -469 451 -469q463 0 463 459q0 508 -465 508q-222 0 -340 -140
q-109 -131 -109 -358z" />
    <glyph glyph-name="R" unicode="R" horiz-adv-x="1688" 
d="M573 1190v-344h261q149 0 211 21q112 38 112 155q0 116 -112 151q-56 17 -211 17h-261zM166 0v1475h805q302 0 430 -62q188 -91 188 -307q0 -305 -403 -373q130 -2 201 -29q102 -39 135 -141q30 -91 57 -280q27 -193 55 -283h-434q-20 39 -36 151q-1 8 -3 22l-28 196
q-19 136 -99 172q-48 22 -213 22h-248v-563h-407z" />
    <glyph glyph-name="S" unicode="S" horiz-adv-x="1589" 
d="M100 492h418v-15q0 -213 295 -213q266 0 266 154q0 112 -306 167l-95 17q-250 48 -366 117q-181 107 -181 311q0 259 229 376q174 89 461 89q283 0 433 -82q194 -106 208 -362h-397v4q0 164 -256 164t-256 -138q0 -105 296 -160q15 -3 81 -16q5 -1 17 -3
q326 -63 431 -154q125 -108 125 -297q0 -263 -238 -384q-182 -92 -474 -92q-691 0 -691 486v31z" />
    <glyph glyph-name="T" unicode="T" horiz-adv-x="1602" 
d="M592 0v1165h-559v310h1536v-310h-559v-1165h-418z" />
    <glyph glyph-name="U" unicode="U" horiz-adv-x="1907" 
d="M162 1475h428v-832q0 -356 356 -356q371 0 371 356v832h428v-834q0 -369 -223 -529q-191 -137 -578 -137q-404 0 -596 156q-111 91 -154 230q-32 107 -32 280v834z" />
    <glyph glyph-name="V" unicode="V" horiz-adv-x="1716" 
d="M594 0l-610 1475h452l434 -1117l449 1117h414l-635 -1475h-504z" />
    <glyph glyph-name="W" unicode="W" horiz-adv-x="2494" 
d="M424 0l-422 1475h428l283 -1084l340 1084h469l303 -1113l289 1113h385l-424 -1475h-527l-286 1055l-324 -1055h-514z" />
    <glyph glyph-name="X" unicode="X" horiz-adv-x="1743" 
d="M-61 0l675 776l-618 699h522l383 -469l379 469h477l-629 -699l670 -776h-536l-416 522l-414 -522h-493z" />
    <glyph glyph-name="Y" unicode="Y" horiz-adv-x="1548" 
d="M567 0v530l-665 945h493l410 -611l391 611h455l-666 -951v-524h-418z" />
    <glyph glyph-name="Z" unicode="Z" horiz-adv-x="1636" 
d="M96 0v375l932 801h-870v299h1353v-379l-919 -789h944v-307h-1440z" />
    <glyph glyph-name="bracketleft" unicode="[" horiz-adv-x="829" 
d="M180 -299v1796h588v-207h-258v-1390h258v-199h-588z" />
    <glyph glyph-name="backslash" unicode="\" horiz-adv-x="834" 
d="M-12 1497h239l662 -1687h-242z" />
    <glyph glyph-name="bracketright" unicode="]" horiz-adv-x="829" 
d="M649 -299h-588v199h261v1390h-261v207h588v-1796z" />
    <glyph glyph-name="asciicircum" unicode="^" horiz-adv-x="2048" 
d="M879 1462h288l465 -563h-264l-344 342l-346 -342h-264z" />
    <glyph glyph-name="underscore" unicode="_" 
d="M0 -244h1024v-239h-1024v239z" />
    <glyph glyph-name="grave" unicode="`" 
d="M719 1165h-178l-447 285h357z" />
    <glyph glyph-name="a" unicode="a" horiz-adv-x="1440" 
d="M926 459h-31q-183 0 -255 -12q-181 -30 -181 -134q0 -114 196 -114q271 0 271 237v23zM936 152q-132 -177 -479 -177q-175 0 -281 67q-127 80 -127 245q0 190 160 288q117 72 526 72h191q0 5 1 14.5t1 14.5q0 172 -193 172q-202 0 -221 -125h-399q37 330 626 330
q566 0 566 -394v-524q0 -84 20 -135h-366q-25 54 -25 133v19z" />
    <glyph glyph-name="b" unicode="b" horiz-adv-x="1587" 
d="M137 1475h393v-594q178 174 441 174q245 0 386.5 -143.5t141.5 -389.5q0 -253 -132 -398q-137 -149 -388 -149q-284 0 -449 218v-33q0 -80 -12 -160h-397q16 128 16 233v1242zM1096 543q0 135 -72 218q-76 87 -209 87q-289 0 -289 -320q0 -142 69 -226q75 -89 214 -89
q144 0 219 95q68 87 68 235z" />
    <glyph glyph-name="c" unicode="c" horiz-adv-x="1434" 
d="M961 666q-26 168 -226 168q-134 0 -200 -102q-56 -86 -56 -228q0 -293 254 -293q226 0 230 190h405q-22 -424 -639 -424q-290 0 -459 113q-198 133 -198 408q0 286 199 431q176 128 474 128q568 0 609 -391h-393z" />
    <glyph glyph-name="d" unicode="d" horiz-adv-x="1587" 
d="M772 848q-133 0 -207 -88q-71 -82 -71 -217q0 -149 66 -235q74 -95 218 -95q140 0 214 89q69 83 69 226q0 320 -289 320zM1450 1475v-1242q0 -105 16 -233h-397q-12 80 -12 160v33q-163 -218 -447 -218q-251 0 -389 149q-133 144 -133 398q0 246 141 389.5t387 143.5
q263 0 441 -174v594h393z" />
    <glyph glyph-name="e" unicode="e" horiz-adv-x="1417" 
d="M1335 328q-29 -353 -612 -353q-287 0 -455 115q-196 135 -196 408q0 287 199 431q176 128 474 128q611 0 611 -596v-35h-891q5 -114 81 -178q73 -60 189 -60q198 0 215 140h385zM467 635h501q-3 103 -75 157q-66 50 -172 50q-237 0 -254 -207z" />
    <glyph glyph-name="f" unicode="f" horiz-adv-x="946" 
d="M248 1169q0 188 140 266q108 60 314 60q138 0 240 -27v-217q-2 0 -22 1q-83 3 -99 3q-97 0 -133 -21q-49 -29 -49 -116v-90h303v-244h-303v-784h-391v784h-236v244h236v141z" />
    <glyph glyph-name="g" unicode="g" horiz-adv-x="1597" 
d="M500 537q0 -125 77 -198t203 -73q289 0 289 285q0 134 -75 206t-210 72q-137 0 -210.5 -77t-73.5 -215zM1075 874q0 90 12 154h385q-14 -112 -14 -233v-525q0 -159 -11 -237q-20 -136 -83 -219q-165 -217 -629 -217q-577 0 -583 362h388q8 -139 208 -139q317 0 317 307
v86q-152 -174 -438 -174q-232 0 -379 133q-152 138 -152 367q0 247 153 383q146 131 396 131q245 0 430 -179z" />
    <glyph glyph-name="h" unicode="h" horiz-adv-x="1542" 
d="M530 0h-393v1475h393v-611q171 189 443 189q199 0 319 -104q127 -110 127 -306v-643h-395v627q0 194 -231 194q-263 0 -263 -299v-522z" />
    <glyph glyph-name="i" unicode="i" horiz-adv-x="653" 
d="M115 1186v289h424v-289h-424zM131 0v1028h393v-1028h-393z" />
    <glyph glyph-name="j" unicode="j" horiz-adv-x="696" 
d="M172 143v885h393v-1008q0 -230 -126 -332q-114 -91 -351 -91q-111 0 -174 12v260q12 0 37 -1t37 -1q154 0 175 96q9 42 9 180zM158 1186v289h422v-289h-422z" />
    <glyph glyph-name="k" unicode="k" horiz-adv-x="1475" 
d="M131 0v1475h393v-877l488 430h469l-504 -444l555 -584h-508l-500 549v-549h-393z" />
    <glyph glyph-name="l" unicode="l" horiz-adv-x="653" 
d="M131 0v1475h393v-1475h-393z" />
    <glyph glyph-name="m" unicode="m" horiz-adv-x="2318" 
d="M137 0v786q0 142 -12 242h387q9 -60 19 -165q172 190 425 190q288 0 369 -213q148 213 420 213q216 0 332 -110q118 -113 118 -327v-616h-391v627q0 194 -198 194q-246 0 -246 -299v-522h-387v627q0 92 -52.5 143t-144.5 51q-252 0 -252 -299v-522h-387z" />
    <glyph glyph-name="n" unicode="n" horiz-adv-x="1542" 
d="M137 0v786q0 142 -12 242h395q10 -80 10 -164q179 189 443 189q206 0 324 -108q122 -112 122 -316v-629h-395v610q0 211 -217 211q-277 0 -277 -299v-522h-393z" />
    <glyph glyph-name="o" unicode="o" horiz-adv-x="1540" 
d="M752 -25q-302 0 -476 117q-204 137 -204 424t213 424q178 115 483 115q307 0 485 -116q213 -138 213 -427q0 -537 -714 -537zM772 205q138 0 213 92q70 86 70 227q0 143 -70 230q-76 94 -215 94q-143 0 -217 -91q-68 -84 -68 -231q0 -321 287 -321z" />
    <glyph glyph-name="p" unicode="p" horiz-adv-x="1587" 
d="M137 -389v1184q0 105 -16 233h397q12 -80 12 -160v-32q168 219 449 219q251 0 388 -150q132 -145 132 -399q0 -246 -141.5 -389.5t-386.5 -143.5q-263 0 -441 174v-536h-393zM815 180q133 0 209 87q72 83 72 218q0 148 -68 235q-75 95 -219 95q-139 0 -214 -89
q-69 -84 -69 -226q0 -320 289 -320z" />
    <glyph glyph-name="q" unicode="q" horiz-adv-x="1587" 
d="M494 485q0 -135 71 -217q74 -88 207 -88q289 0 289 322q0 142 -69 225q-74 88 -214 88q-144 0 -218 -95q-66 -86 -66 -235zM1450 -389h-393v536q-178 -174 -441 -174q-245 0 -386.5 143.5t-141.5 389.5q0 253 133 399q138 150 389 150q279 0 447 -219v32q0 80 12 160h397
q-16 -128 -16 -233v-1184z" />
    <glyph glyph-name="r" unicode="r" horiz-adv-x="1010" 
d="M967 701q-62 10 -123 10q-314 0 -314 -353v-358h-393v786q0 142 -12 242h385q8 -70 8 -156v-47q118 215 408 215h41v-339z" />
    <glyph glyph-name="s" unicode="s" horiz-adv-x="1294" 
d="M70 326h391q0 -138 190 -138q178 0 178 107q0 82 -214 109q-22 3 -58 8q-216 28 -300 71q-144 73 -144 244q0 326 518 326q246 0 374 -52q195 -79 195 -286h-385v4q0 127 -170 127q-153 0 -153 -84q0 -72 215 -107q27 -5 71 -12q218 -36 293 -71q148 -71 148 -232
q0 -365 -580 -365q-248 0 -374 56q-181 82 -195 295z" />
    <glyph glyph-name="t" unicode="t" horiz-adv-x="999" 
d="M623 1389v-361h323v-244h-323v-401q0 -83 40 -114q35 -27 121 -27q57 0 162 10v-250q-129 -27 -254 -27q-452 0 -452 326v483h-236v244h236v219l209 66q81 26 174 76z" />
    <glyph glyph-name="u" unicode="u" horiz-adv-x="1542" 
d="M1016 0q-10 84 -10 164q-183 -189 -443 -189q-215 0 -330.5 114t-115.5 329v610h395v-596q0 -225 221 -225q273 0 273 301v520h393v-784q0 -80 10 -220q2 -28 2 -24h-395z" />
    <glyph glyph-name="v" unicode="v" horiz-adv-x="1389" 
d="M446 0l-483 1028h436l301 -743l304 743h419l-489 -1028h-488z" />
    <glyph glyph-name="w" unicode="w" horiz-adv-x="2224" 
d="M377 0l-412 1028h422l242 -719l274 719h459l270 -719l266 719h363l-434 -1028h-443l-280 725l-266 -725h-461z" />
    <glyph glyph-name="x" unicode="x" horiz-adv-x="1360" 
d="M-39 0l500 555l-432 473h489l197 -254l213 254h422l-432 -477l479 -551h-494l-246 322l-270 -322h-426z" />
    <glyph glyph-name="y" unicode="y" horiz-adv-x="1366" 
d="M256 -389l233 405l-522 1012h432l299 -682l320 682h377l-729 -1417h-410z" />
    <glyph glyph-name="z" unicode="z" horiz-adv-x="1298" 
d="M92 0v293l633 498h-582v237h1039v-260l-647 -516h694v-252h-1137z" />
    <glyph glyph-name="braceleft" unicode="{" 
d="M893 1477v-242q-7 0 -20.5 1t-20.5 1q-102 0 -136 -40q-30 -37 -30 -142v-240q0 -132 -41 -192q-46 -67 -170 -93q125 -25 170 -90q41 -59 41 -192v-242q0 -104 30 -140q33 -40 134 -40q7 0 21.5 1t21.5 1v-242q-14 0 -41 -1t-41 -1q-207 0 -299 49q-71 38 -93 122
q-13 49 -13 159v256q0 127 -45 182q-50 60 -173 60q-6 0 -18 -1t-18 -1v241q6 0 18 -1t18 -1q123 0 173 62q45 55 45 182v254q0 120 17 173q28 87 117.5 123t272.5 36q13 0 40 -1t40 -1z" />
    <glyph glyph-name="bar" unicode="|" 
d="M393 1565h240v-2048h-240v2048z" />
    <glyph glyph-name="braceright" unicode="}" 
d="M133 1477q13 0 40 1t40 1q209 0 301 -49q70 -38 93 -123q14 -51 14 -160v-254q0 -128 44 -183q49 -61 173 -61q6 0 18 1t18 1v-241q-6 0 -18 1t-18 1q-123 0 -172 -61q-45 -54 -45 -181v-256q0 -110 -13 -160q-23 -85 -94 -123q-88 -47 -291 -47q-15 0 -45 1t-45 1v242
q7 0 21.5 -1t21.5 -1q101 0 134 40q30 35 30 140v242q0 132 41 191q46 66 170 91q-125 26 -171 92q-40 59 -40 193v240q0 103 -29 140q-33 42 -131 42q-8 0 -23.5 -1t-23.5 -1v242z" />
    <glyph glyph-name="asciitilde" unicode="~" horiz-adv-x="1706" 
d="M1530 819v-254q-201 -137 -377 -137q-88 0 -172 29q-11 4 -38 13q-254 89 -382 89q-162 0 -383 -158v254q221 144 387 144q115 0 296 -58q14 -4 51 -17q160 -56 247 -56q165 0 371 151z" />
    <glyph glyph-name="nonbreakingspace" unicode="&#xa0;" horiz-adv-x="1554" 
 />
    <glyph glyph-name="exclamdown" unicode="&#xa1;" horiz-adv-x="825" 
d="M602 1475v-318h-383v318h383zM254 1055h315l64 -1055h-443z" />
    <glyph glyph-name="cent" unicode="&#xa2;" horiz-adv-x="1554" 
d="M799 836q-262 -14 -262 -332q0 -148 71 -223zM928 1208h174l-60 -174q341 -75 369 -370h-391q-16 84 -64 122l-196 -575q7 0 19.5 -1t19.5 -1q221 0 221 194h405q-3 -230 -198 -340q-156 -88 -406 -88q-63 0 -141 6l-64 -186h-176l74 211q-183 43 -284 173.5t-101 318.5
q0 284 196 430q174 131 468 131q51 0 81 -2z" />
    <glyph glyph-name="sterling" unicode="&#xa3;" horiz-adv-x="1554" 
d="M1120 891v-217h-344v-418h754v-256h-1352v256h180v418h-213v217h211q-2 20 -2 57q0 275 162 396q142 106 428 106q580 0 604 -369h-436q-16 129 -162 129q-176 0 -176 -270q0 -8 1 -24.5t1 -24.5h344z" />
    <glyph glyph-name="currency" unicode="&#xa4;" horiz-adv-x="1241" 
d="M623 1145q-107 0 -184 -76.5t-77 -183.5q0 -109 76 -184.5t185 -75.5q108 0 184 76t76 184q0 107 -76.5 183.5t-183.5 76.5zM178 1444l203 -201q108 74 240 74q139 0 243 -74l201 201l119 -117l-201 -205q70 -106 70 -237q0 -132 -70 -238l201 -203l-119 -118l-201 202
q-103 -73 -241 -73q-136 0 -242 73l-203 -202l-117 118l201 203q-72 108 -72 238q0 132 72 237l-201 205z" />
    <glyph glyph-name="yen" unicode="&#xa5;" horiz-adv-x="1567" 
d="M567 0v514h-567v152h455l-109 153h-346v152h233l-331 456h493l410 -589l391 589h455l-332 -456h248v-152h-359l-110 -153h469v-152h-582v-514h-418z" />
    <glyph glyph-name="brokenbar" unicode="&#xa6;" 
d="M393 408h240v-758h-240v758zM393 1432h240v-758h-240v758z" />
    <glyph glyph-name="section" unicode="&#xa7;" horiz-adv-x="1255" 
d="M629 604q149 48 149 113q0 57 -182 114q-141 -30 -141 -112q0 -73 174 -115zM162 260q213 -119 395 -119q205 0 205 103q0 65 -166 112q-53 15 -102 31q-180 58 -240 94q-127 77 -127 203q0 173 221 274q-201 103 -201 259t166 228q121 52 301 52q196 0 428 -65v-275
q-235 94 -387 94q-143 0 -143 -80q0 -54 199 -118l108 -35q303 -101 303 -266q0 -173 -250 -269q261 -77 261 -270q0 -180 -191 -260q-136 -57 -346 -57q-209 0 -434 69v295z" />
    <glyph glyph-name="dieresis" unicode="&#xa8;" 
d="M594 1190v237h291v-237h-291zM139 1190v237h291v-237h-291z" />
    <glyph glyph-name="copyright" unicode="&#xa9;" horiz-adv-x="1706" 
d="M1221 891h-213q-15 141 -156 141q-176 0 -176 -293q0 -284 186 -284q139 0 152 155h215q-6 -151 -115 -237q-101 -80 -256 -80q-196 0 -306 122q-106 118 -106 316q0 200 104 321q110 130 306 130q146 0 246 -71q110 -79 119 -220zM854 1350q-254 0 -430 -179
q-182 -185 -182 -434q0 -183 105.5 -338t274.5 -225q111 -47 232 -47q182 0 340.5 104t225.5 271q44 109 44 235q0 255 -176 432q-180 181 -434 181zM852 1485q313 0 532 -219q215 -215 215 -529t-213 -524q-226 -223 -534 -223q-305 0 -525.5 220.5t-220.5 526.5
q0 223 127.5 415t332.5 278q133 55 286 55z" />
    <glyph glyph-name="ordfeminine" unicode="&#xaa;" horiz-adv-x="1079" 
d="M694 1075h-22q-137 0 -189 -8q-139 -21 -139 -94q0 -80 148 -80q202 0 202 166v16zM702 860q-96 -123 -360 -123q-126 0 -206 45q-99 56 -99 172q0 133 121 203q85 49 393 49h143q0 4 1 10.5t1 10.5q0 121 -145 121q-149 0 -166 -88h-299q29 231 471 231q424 0 424 -277
v-366q0 -58 14 -94h-274q-19 40 -19 94v12z" />
    <glyph glyph-name="guillemotleft" unicode="&#xab;" horiz-adv-x="1214" 
d="M76 514l239 393h338l-227 -393l227 -393h-338zM604 514l240 393h338l-228 -393l228 -393h-338z" />
    <glyph glyph-name="logicalnot" unicode="&#xac;" horiz-adv-x="1706" 
d="M254 866h1198v-501h-229v274h-969v227z" />
    <glyph glyph-name="sfthyphen" unicode="&#xad;" horiz-adv-x="909" 
d="M80 338v352h749v-352h-749z" />
    <glyph glyph-name="registered" unicode="&#xae;" horiz-adv-x="1706" 
d="M762 1022v-219h80q147 0 147 106q0 113 -160 113h-67zM537 1163h329q355 0 355 -237q0 -170 -174 -221l182 -361h-248l-154 326h-65v-326h-225v819zM854 1350q-252 0 -426 -172q-184 -182 -184 -441q0 -246 174 -424q182 -186 434 -186q184 0 340.5 102.5t225.5 270.5
q46 111 46 237q0 253 -172 428q-182 185 -438 185zM852 1485q320 0 539 -225q208 -214 208 -523q0 -318 -221 -530q-226 -217 -526 -217q-310 0 -530 227q-216 223 -216 520q0 312 228 537q214 211 518 211z" />
    <glyph glyph-name="macron" unicode="&#xaf;" 
d="M139 1233v149h746v-149h-746z" />
    <glyph glyph-name="macron" unicode="&#x2c9;" 
d="M139 1233v149h746v-149h-746z" />
    <glyph glyph-name="degree" unicode="&#xb0;" horiz-adv-x="674" 
d="M338 1321q-69 0 -117.5 -47.5t-48.5 -116.5q0 -70 48 -118t118 -48q68 0 116 48.5t48 117.5q0 68 -48 116t-116 48zM338 1466q130 0 220.5 -90.5t90.5 -220.5t-91.5 -220.5t-221.5 -90.5t-219.5 90.5t-89.5 220.5q0 131 90 221t221 90z" />
    <glyph glyph-name="plusminus" unicode="&#xb1;" horiz-adv-x="1706" 
d="M254 213h1198v-231h-1198v231zM735 1241h238v-319h479v-232h-479v-319h-238v319h-481v232h481v319z" />
    <glyph glyph-name="twosuperior" unicode="&#xb2;" horiz-adv-x="1026" 
d="M934 571h-879v183q223 100 432 231q156 98 156 186q0 105 -143 105q-136 0 -140 -123h-278q0 289 414 289q171 0 283 -51q153 -70 153 -220q0 -143 -193 -274q-98 -67 -315 -162h510v-164z" />
    <glyph glyph-name="threesuperior" unicode="&#xb3;" horiz-adv-x="1026" 
d="M422 932v155h16q197 0 197 99q0 100 -131 100q-134 0 -148 -92h-280q23 248 418 248q426 0 426 -246q0 -157 -224 -182q250 -25 250 -207q0 -250 -457 -250q-436 0 -446 268h285q4 -114 166 -114q163 0 163 114q0 111 -180 111q-14 0 -48 -3q-5 -1 -7 -1z" />
    <glyph glyph-name="acute" unicode="&#xb4;" 
d="M305 1165l268 285h357l-447 -285h-178z" />
    <glyph glyph-name="mu" unicode="&#xb5;" horiz-adv-x="1315" 
d="M193 1090h358l-80 -529q-12 -79 -12 -143q0 -170 143 -170q167 0 213 289l88 553h357l-175 -1090h-321l18 125q-75 -141 -209 -141q-122 0 -184 120l-82 -532h-352z" />
    <glyph glyph-name="mu" unicode="&#x3bc;" horiz-adv-x="1315" 
d="M193 1090h358l-80 -529q-12 -79 -12 -143q0 -170 143 -170q167 0 213 289l88 553h357l-175 -1090h-321l18 125q-75 -141 -209 -141q-122 0 -184 120l-82 -532h-352z" />
    <glyph glyph-name="paragraph" unicode="&#xb6;" 
d="M997 1479v-123h-106v-1356h-176v1356h-150v-1356h-174v784q-159 6 -258 96q-104 94 -104 250q0 166 114 261q106 88 275 88h579z" />
    <glyph glyph-name="ch270" unicode="&#xb7;" horiz-adv-x="778" 
d="M207 715q0 76 53.5 128t130.5 52q75 0 127.5 -52.5t52.5 -127.5q0 -76 -52 -130.5t-128 -54.5q-77 0 -130.5 53.5t-53.5 131.5z" />
    <glyph glyph-name="ch270" unicode="&#x2219;" horiz-adv-x="778" 
d="M207 715q0 76 53.5 128t130.5 52q75 0 127.5 -52.5t52.5 -127.5q0 -76 -52 -130.5t-128 -54.5q-77 0 -130.5 53.5t-53.5 131.5z" />
    <glyph glyph-name="cedilla" unicode="&#xb8;" 
d="M219 -397v116q213 -38 344 -38q109 0 109 67q0 62 -152 62q-44 0 -74 -2v192h111v-82h31q305 0 305 -174q0 -180 -322 -180q-155 0 -352 39z" />
    <glyph glyph-name="onesuperior" unicode="&#xb9;" horiz-adv-x="1026" 
d="M725 571h-270v623q-113 -66 -279 -102v200q180 60 309 135h240v-856z" />
    <glyph glyph-name="ordmasculine" unicode="&#xba;" horiz-adv-x="1155" 
d="M563 737q-220 0 -349 77q-161 96 -161 300q0 206 166 302q133 77 356 77q224 0 358 -77q167 -97 167 -304q0 -375 -537 -375zM580 897q101 0 157 62q54 59 54 161q0 103 -56 165.5t-157 62.5q-213 0 -213 -226q0 -225 215 -225z" />
    <glyph glyph-name="guillemotright" unicode="&#xbb;" horiz-adv-x="1214" 
d="M1139 514l-242 -393h-338l227 393l-227 393h338zM610 514l-241 -393h-336l227 393l-227 393h336z" />
    <glyph glyph-name="onequarter" unicode="&#xbc;" horiz-adv-x="2302" 
d="M2111 0h-251v168h-510v190l448 441h313v-482h166v-149h-166v-168zM1860 317v301q-142 -163 -304 -301h304zM1454 1450h207l-817 -1475h-207zM690 627h-258v579q-103 -57 -264 -94v186q181 64 295 127h227v-798z" />
    <glyph glyph-name="onehalf" unicode="&#xbd;" horiz-adv-x="2302" 
d="M2212 0h-838v170q220 98 412 217q149 92 149 172q0 98 -137 98q-129 0 -133 -114h-266q0 268 395 268q161 0 268 -46q148 -64 148 -204q0 -135 -184 -257q-94 -63 -300 -150h486v-154zM1454 1450h207l-817 -1475h-207zM690 627h-258v579q-103 -57 -264 -94v186
q181 64 295 127h227v-798z" />
    <glyph glyph-name="threequarters" unicode="&#xbe;" horiz-adv-x="2300" 
d="M2111 0h-251v168h-510v190l448 441h313v-482h166v-149h-166v-168zM1860 317v301q-142 -163 -304 -301h304zM1454 1450h207l-817 -1475h-207zM403 965v143h15q188 0 188 92q0 94 -125 94q-129 0 -141 -86h-268q23 230 399 230q406 0 406 -228q0 -147 -213 -170
q239 -25 239 -194q0 -234 -436 -234q-416 0 -426 252h272q4 -106 158 -106q156 0 156 104q0 105 -172 105q-9 0 -26 -1t-26 -1z" />
    <glyph glyph-name="questiondown" unicode="&#xbf;" horiz-adv-x="1262" 
d="M979 1475v-318h-383v318h383zM967 1049q0 -9 1 -27t1 -27q0 -111 -29 -178q-32 -74 -115 -139q-49 -39 -130 -90q-175 -111 -175 -199q0 -153 266 -153q199 0 404 67v-283q-254 -45 -455 -45q-624 0 -624 394q0 208 227 354q17 11 46 29q222 138 222 280v17h361z" />
    <glyph glyph-name="Agrave" unicode="&#xc0;" horiz-adv-x="1868" 
d="M662 584h530l-252 567zM-57 0l768 1475h499l723 -1475h-475l-131 299h-803l-137 -299h-444zM1165 1611h-178l-447 285h357z" />
    <glyph glyph-name="Aacute" unicode="&#xc1;" horiz-adv-x="1868" 
d="M662 584h530l-252 567zM-57 0l768 1475h499l723 -1475h-475l-131 299h-803l-137 -299h-444zM751 1611l268 285h357l-447 -285h-178z" />
    <glyph glyph-name="Acircumflex" unicode="&#xc2;" horiz-adv-x="1868" 
d="M662 584h530l-252 567zM-57 0l768 1475h499l723 -1475h-475l-131 299h-803l-137 -299h-444zM542 1611l269 285h294l269 -285h-178l-238 160l-238 -160h-178z" />
    <glyph glyph-name="Atilde" unicode="&#xc3;" horiz-adv-x="1868" 
d="M662 584h530l-252 567zM-57 0l768 1475h499l723 -1475h-475l-131 299h-803l-137 -299h-444zM1370 1880q-54 -226 -273 -226q-46 0 -78 9l-173 32q-32 6 -54 6q-90 0 -121 -71h-125q66 219 265 219q46 0 86 -8l163 -33q30 -6 68 -6q87 0 115 78h127z" />
    <glyph glyph-name="Adieresis" unicode="&#xc4;" horiz-adv-x="1868" 
d="M662 584h530l-252 567zM-57 0l768 1475h499l723 -1475h-475l-131 299h-803l-137 -299h-444zM1040 1636v237h291v-237h-291zM585 1636v237h291v-237h-291z" />
    <glyph glyph-name="Aring" unicode="&#xc5;" horiz-adv-x="1868" 
d="M1288 1739q0 -199 -327 -199q-330 0 -330 199q0 198 330 198q327 0 327 -198zM1085 1741q0 117 -124 117q-127 0 -127 -117q0 -121 127 -121q124 0 124 121zM-57 0l768 1475h499l723 -1475h-475l-131 299h-803l-137 -299h-444zM662 584h530l-252 567z" />
    <glyph glyph-name="AE" unicode="&#xc6;" horiz-adv-x="2511" 
d="M664 545h528l-156 616zM1264 260h-770l-160 -260h-469l975 1475h1577v-314h-963l66 -256h854v-307h-777l72 -285h768v-313h-1108z" />
    <glyph glyph-name="Ccedilla" unicode="&#xc7;" horiz-adv-x="1712" 
d="M1644 514q-18 -539 -722 -539q-392 0 -606 181q-228 195 -228 579q0 388 238 581q218 177 616 177q650 0 696 -504h-421q-34 209 -302 209q-401 0 -401 -455q0 -467 379 -467q295 0 328 238h423zM563 -397v116q213 -38 344 -38q109 0 109 67q0 62 -152 62q-44 0 -74 -2
v192h111v-82h31q305 0 305 -174q0 -180 -322 -180q-155 0 -352 39z" />
    <glyph glyph-name="Egrave" unicode="&#xc8;" horiz-adv-x="1518" 
d="M166 0v1475h1255v-314h-848v-256h807v-303h-807v-285h871v-317h-1278zM1016 1611h-178l-447 285h357z" />
    <glyph glyph-name="Eacute" unicode="&#xc9;" horiz-adv-x="1518" 
d="M166 0v1475h1255v-314h-848v-256h807v-303h-807v-285h871v-317h-1278zM602 1611l268 285h357l-447 -285h-178z" />
    <glyph glyph-name="Ecircumflex" unicode="&#xca;" horiz-adv-x="1518" 
d="M166 0v1475h1255v-314h-848v-256h807v-303h-807v-285h871v-317h-1278zM393 1611l269 285h294l269 -285h-178l-238 160l-238 -160h-178z" />
    <glyph glyph-name="Edieresis" unicode="&#xcb;" horiz-adv-x="1518" 
d="M166 0v1475h1255v-314h-848v-256h807v-303h-807v-285h871v-317h-1278zM891 1636v237h291v-237h-291zM436 1636v237h291v-237h-291z" />
    <glyph glyph-name="Igrave" unicode="&#xcc;" horiz-adv-x="768" 
d="M172 0v1475h422v-1475h-422zM592 1611h-178l-447 285h357z" />
    <glyph glyph-name="Iacute" unicode="&#xcd;" horiz-adv-x="768" 
d="M172 0v1475h422v-1475h-422zM178 1611l268 285h357l-447 -285h-178z" />
    <glyph glyph-name="Icircumflex" unicode="&#xce;" horiz-adv-x="768" 
d="M172 0v1475h422v-1475h-422zM-31 1611l269 285h294l269 -285h-178l-238 160l-238 -160h-178z" />
    <glyph glyph-name="Idieresis" unicode="&#xcf;" horiz-adv-x="768" 
d="M172 0v1475h422v-1475h-422zM467 1636v237h291v-237h-291zM12 1636v237h291v-237h-291z" />
    <glyph glyph-name="Eth" unicode="&#xd0;" horiz-adv-x="1849" 
d="M1331 303v244h-370v276h786v-747q-325 -101 -717 -101q-942 0 -942 750q0 393 260 591q232 177 639 177q730 0 760 -489h-451q-5 115 -110 173q-85 46 -211 46q-222 0 -340 -127q-113 -124 -113 -348q0 -488 496 -488q143 0 313 43zM514 1892h166q28 -129 246 -129
q219 0 246 129h164q-39 -279 -410 -279q-373 0 -412 279z" />
    <glyph glyph-name="Ntilde" unicode="&#xd1;" horiz-adv-x="1913" 
d="M158 0v1475h547l675 -1061v1061h375v-1475h-549l-674 1057v-1057h-374zM1368 1880q-54 -226 -273 -226q-46 0 -78 9l-173 32q-32 6 -54 6q-90 0 -121 -71h-125q66 219 265 219q46 0 86 -8l163 -33q30 -6 68 -6q87 0 115 78h127z" />
    <glyph glyph-name="Ograve" unicode="&#xd2;" horiz-adv-x="1952" 
d="M518 723q0 -465 453 -465q461 0 461 457q0 502 -465 502q-221 0 -339 -139q-110 -129 -110 -355zM950 -27q-397 0 -620 183q-242 198 -242 585q0 383 266 582q238 176 635 176q402 0 628 -182q247 -199 247 -590q0 -396 -268 -587q-233 -167 -646 -167zM1184 1611h-178
l-447 285h357z" />
    <glyph glyph-name="Oacute" unicode="&#xd3;" horiz-adv-x="1952" 
d="M518 723q0 -465 453 -465q461 0 461 457q0 502 -465 502q-221 0 -339 -139q-110 -129 -110 -355zM950 -27q-397 0 -620 183q-242 198 -242 585q0 383 266 582q238 176 635 176q402 0 628 -182q247 -199 247 -590q0 -396 -268 -587q-233 -167 -646 -167zM770 1611l268 285
h357l-447 -285h-178z" />
    <glyph glyph-name="Ocircumflex" unicode="&#xd4;" horiz-adv-x="1952" 
d="M518 723q0 -465 453 -465q461 0 461 457q0 502 -465 502q-221 0 -339 -139q-110 -129 -110 -355zM950 -27q-397 0 -620 183q-242 198 -242 585q0 383 266 582q238 176 635 176q402 0 628 -182q247 -199 247 -590q0 -396 -268 -587q-233 -167 -646 -167zM561 1611l269 285
h294l269 -285h-178l-238 160l-238 -160h-178z" />
    <glyph glyph-name="Otilde" unicode="&#xd5;" horiz-adv-x="1952" 
d="M518 723q0 -465 453 -465q461 0 461 457q0 502 -465 502q-221 0 -339 -139q-110 -129 -110 -355zM950 -27q-397 0 -620 183q-242 198 -242 585q0 383 266 582q238 176 635 176q402 0 628 -182q247 -199 247 -590q0 -396 -268 -587q-233 -167 -646 -167zM1389 1880
q-54 -226 -273 -226q-46 0 -78 9l-173 32q-32 6 -54 6q-90 0 -121 -71h-125q66 219 265 219q46 0 86 -8l163 -33q30 -6 68 -6q87 0 115 78h127z" />
    <glyph glyph-name="Odieresis" unicode="&#xd6;" horiz-adv-x="1952" 
d="M518 723q0 -465 453 -465q461 0 461 457q0 502 -465 502q-221 0 -339 -139q-110 -129 -110 -355zM950 -27q-397 0 -620 183q-242 198 -242 585q0 383 266 582q238 176 635 176q402 0 628 -182q247 -199 247 -590q0 -396 -268 -587q-233 -167 -646 -167zM1059 1636v237
h291v-237h-291zM604 1636v237h291v-237h-291z" />
    <glyph glyph-name="multiply" unicode="&#xd7;" horiz-adv-x="1706" 
d="M430 1214l440 -440l441 440l162 -161l-441 -443l441 -440l-162 -162l-441 441l-440 -441l-162 162l441 440l-441 443z" />
    <glyph glyph-name="Oslash" unicode="&#xd8;" horiz-adv-x="1952" 
d="M172 -47l172 194q-256 201 -256 584q0 389 261 589q234 179 636 179q283 0 481 -88l183 207l112 -92l-166 -191q269 -190 269 -600q0 -400 -265 -594q-233 -170 -649 -170q-291 0 -477 95l-188 -209zM690 313q112 -67 275 -67q230 0 354.5 116.5t124.5 344.5
q0 225 -94 350zM584 416l657 741q-109 68 -274 68q-225 0 -345 -140q-114 -131 -114 -360q0 -209 76 -309z" />
    <glyph glyph-name="Ugrave" unicode="&#xd9;" horiz-adv-x="1907" 
d="M162 1475h428v-832q0 -356 356 -356q371 0 371 356v832h428v-834q0 -369 -223 -529q-191 -137 -578 -137q-404 0 -596 156q-111 91 -154 230q-32 107 -32 280v834zM1161 1611h-178l-447 285h357z" />
    <glyph glyph-name="Uacute" unicode="&#xda;" horiz-adv-x="1907" 
d="M162 1475h428v-832q0 -356 356 -356q371 0 371 356v832h428v-834q0 -369 -223 -529q-191 -137 -578 -137q-404 0 -596 156q-111 91 -154 230q-32 107 -32 280v834zM747 1611l268 285h357l-447 -285h-178z" />
    <glyph glyph-name="Ucircumflex" unicode="&#xdb;" horiz-adv-x="1907" 
d="M162 1475h428v-832q0 -356 356 -356q371 0 371 356v832h428v-834q0 -369 -223 -529q-191 -137 -578 -137q-404 0 -596 156q-111 91 -154 230q-32 107 -32 280v834zM538 1611l269 285h294l269 -285h-178l-238 160l-238 -160h-178z" />
    <glyph glyph-name="Udieresis" unicode="&#xdc;" horiz-adv-x="1907" 
d="M162 1475h428v-832q0 -356 356 -356q371 0 371 356v832h428v-834q0 -369 -223 -529q-191 -137 -578 -137q-404 0 -596 156q-111 91 -154 230q-32 107 -32 280v834zM1036 1636v237h291v-237h-291zM581 1636v237h291v-237h-291z" />
    <glyph glyph-name="Yacute" unicode="&#xdd;" horiz-adv-x="768" 
d="M172 0v1475h422v-1475h-422zM233 1628v248h304v-248h-304z" />
    <glyph glyph-name="Thorn" unicode="&#xde;" horiz-adv-x="1589" 
d="M100 492h418v-15q0 -213 295 -213q266 0 266 154q0 112 -306 167l-95 17q-250 48 -366 117q-181 107 -181 311q0 259 229 376q174 89 461 89q283 0 433 -82q194 -106 208 -362h-397v4q0 164 -256 164t-256 -138q0 -105 296 -160q15 -3 81 -16q5 -1 17 -3
q326 -63 431 -154q125 -108 125 -297q0 -263 -238 -384q-182 -92 -474 -92q-691 0 -691 486v31zM502 -397v116q213 -38 344 -38q109 0 109 67q0 62 -152 62q-44 0 -74 -2v192h111v-82h31q305 0 305 -174q0 -180 -322 -180q-155 0 -352 39z" />
    <glyph glyph-name="germandbls" unicode="&#xdf;" horiz-adv-x="1536" 
d="M135 0v975q0 240 72 330q153 190 498 190q202 0 346 -66q192 -88 192 -266q0 -120 -125 -213q-3 -2 -24 -17q-109 -77 -109 -130q0 -64 169 -131q16 -7 42 -17q156 -63 219 -118q94 -83 94 -218q0 -344 -446 -344q-205 0 -311 59q-138 78 -138 265v10h332v-6
q0 -119 127 -119q109 0 109 103q0 88 -176 149q-52 18 -86 31q-297 114 -297 311q0 107 117 189q8 6 29 20q101 68 101 129q0 74 -50.5 118t-125.5 44q-98 0 -138 -54q-36 -47 -36 -149v-1075h-385z" />
    <glyph glyph-name="agrave" unicode="&#xe0;" horiz-adv-x="1440" 
d="M926 459h-31q-183 0 -255 -12q-181 -30 -181 -134q0 -114 196 -114q271 0 271 237v23zM936 152q-132 -177 -479 -177q-175 0 -281 67q-127 80 -127 245q0 190 160 288q117 72 526 72h191q0 5 1 14.5t1 14.5q0 172 -193 172q-202 0 -221 -125h-399q37 330 626 330
q566 0 566 -394v-524q0 -84 20 -135h-366q-25 54 -25 133v19zM928 1165h-178l-447 285h357z" />
    <glyph glyph-name="aacute" unicode="&#xe1;" horiz-adv-x="1440" 
d="M926 459h-31q-183 0 -255 -12q-181 -30 -181 -134q0 -114 196 -114q271 0 271 237v23zM936 152q-132 -177 -479 -177q-175 0 -281 67q-127 80 -127 245q0 190 160 288q117 72 526 72h191q0 5 1 14.5t1 14.5q0 172 -193 172q-202 0 -221 -125h-399q37 330 626 330
q566 0 566 -394v-524q0 -84 20 -135h-366q-25 54 -25 133v19zM514 1165l268 285h357l-447 -285h-178z" />
    <glyph glyph-name="acircumflex" unicode="&#xe2;" horiz-adv-x="1440" 
d="M926 459h-31q-183 0 -255 -12q-181 -30 -181 -134q0 -114 196 -114q271 0 271 237v23zM936 152q-132 -177 -479 -177q-175 0 -281 67q-127 80 -127 245q0 190 160 288q117 72 526 72h191q0 5 1 14.5t1 14.5q0 172 -193 172q-202 0 -221 -125h-399q37 330 626 330
q566 0 566 -394v-524q0 -84 20 -135h-366q-25 54 -25 133v19zM305 1165l269 285h294l269 -285h-178l-238 160l-238 -160h-178z" />
    <glyph glyph-name="atilde" unicode="&#xe3;" horiz-adv-x="1440" 
d="M926 459h-31q-183 0 -255 -12q-181 -30 -181 -134q0 -114 196 -114q271 0 271 237v23zM936 152q-132 -177 -479 -177q-175 0 -281 67q-127 80 -127 245q0 190 160 288q117 72 526 72h191q0 5 1 14.5t1 14.5q0 172 -193 172q-202 0 -221 -125h-399q37 330 626 330
q566 0 566 -394v-524q0 -84 20 -135h-366q-25 54 -25 133v19zM1133 1434q-54 -226 -273 -226q-46 0 -78 9l-173 32q-32 6 -54 6q-90 0 -121 -71h-125q66 219 265 219q46 0 86 -8l163 -33q30 -6 68 -6q87 0 115 78h127z" />
    <glyph glyph-name="adieresis" unicode="&#xe4;" horiz-adv-x="1440" 
d="M926 459h-31q-183 0 -255 -12q-181 -30 -181 -134q0 -114 196 -114q271 0 271 237v23zM936 152q-132 -177 -479 -177q-175 0 -281 67q-127 80 -127 245q0 190 160 288q117 72 526 72h191q0 5 1 14.5t1 14.5q0 172 -193 172q-202 0 -221 -125h-399q37 330 626 330
q566 0 566 -394v-524q0 -84 20 -135h-366q-25 54 -25 133v19zM803 1190v237h291v-237h-291zM348 1190v237h291v-237h-291z" />
    <glyph glyph-name="aring" unicode="&#xe5;" horiz-adv-x="1440" 
d="M1067 1319q0 -199 -330 -199q-327 0 -327 199t327 199q330 0 330 -199zM864 1319q0 119 -127 119q-125 0 -125 -119t125 -119q127 0 127 119zM936 152q-132 -177 -479 -177q-175 0 -281 67q-127 80 -127 245q0 190 160 288q117 72 526 72h191q0 5 1 14.5t1 14.5
q0 172 -193 172q-202 0 -221 -125h-399q37 330 626 330q566 0 566 -394v-524q0 -84 20 -135h-366q-25 54 -25 133v19zM926 459h-31q-183 0 -255 -12q-181 -30 -181 -134q0 -114 196 -114q271 0 271 237v23z" />
    <glyph glyph-name="ae" unicode="&#xe6;" horiz-adv-x="2245" 
d="M1810 629q-1 103 -78 161q-69 52 -176 52q-105 0 -172 -53q-72 -58 -75 -160h501zM2198 459h-891v-4q0 -128 74 -199.5t202 -71.5q77 0 134 34q66 39 75 110h385q-13 -191 -205 -283q-148 -70 -364 -70q-385 0 -504 191q-187 -191 -580 -191q-479 0 -479 310
q0 178 164 272q68 39 177 56q91 13 349 16l190 2q3 12 3 39q0 178 -215 178q-179 0 -199 -125h-399q40 330 579 330q151 0 240 -22q125 -32 205 -118q152 140 458 140q601 0 601 -588v-6zM926 459h-33q-184 0 -254 -12q-180 -30 -180 -134q0 -114 196 -114q271 0 271 237v23
z" />
    <glyph glyph-name="ccedilla" unicode="&#xe7;" horiz-adv-x="1434" 
d="M961 666q-26 168 -226 168q-134 0 -200 -102q-56 -86 -56 -228q0 -293 254 -293q226 0 230 190h405q-22 -424 -639 -424q-290 0 -459 113q-198 133 -198 408q0 286 199 431q176 128 474 128q568 0 609 -391h-393zM424 -397v116q213 -38 344 -38q109 0 109 67
q0 62 -152 62q-44 0 -74 -2v192h111v-82h31q305 0 305 -174q0 -180 -322 -180q-155 0 -352 39z" />
    <glyph glyph-name="egrave" unicode="&#xe8;" horiz-adv-x="1417" 
d="M1335 328q-29 -353 -612 -353q-287 0 -455 115q-196 135 -196 408q0 287 199 431q176 128 474 128q611 0 611 -596v-35h-891q5 -114 81 -178q73 -60 189 -60q198 0 215 140h385zM467 635h501q-3 103 -75 157q-66 50 -172 50q-237 0 -254 -207zM942 1165h-178l-447 285
h357z" />
    <glyph glyph-name="eacute" unicode="&#xe9;" horiz-adv-x="1417" 
d="M1335 328q-29 -353 -612 -353q-287 0 -455 115q-196 135 -196 408q0 287 199 431q176 128 474 128q611 0 611 -596v-35h-891q5 -114 81 -178q73 -60 189 -60q198 0 215 140h385zM467 635h501q-3 103 -75 157q-66 50 -172 50q-237 0 -254 -207zM528 1165l268 285h357
l-447 -285h-178z" />
    <glyph glyph-name="ecircumflex" unicode="&#xea;" horiz-adv-x="1417" 
d="M1335 328q-29 -353 -612 -353q-287 0 -455 115q-196 135 -196 408q0 287 199 431q176 128 474 128q611 0 611 -596v-35h-891q5 -114 81 -178q73 -60 189 -60q198 0 215 140h385zM467 635h501q-3 103 -75 157q-66 50 -172 50q-237 0 -254 -207zM319 1165l269 285h294
l269 -285h-178l-238 160l-238 -160h-178z" />
    <glyph glyph-name="edieresis" unicode="&#xeb;" horiz-adv-x="1417" 
d="M1335 328q-29 -353 -612 -353q-287 0 -455 115q-196 135 -196 408q0 287 199 431q176 128 474 128q611 0 611 -596v-35h-891q5 -114 81 -178q73 -60 189 -60q198 0 215 140h385zM467 635h501q-3 103 -75 157q-66 50 -172 50q-237 0 -254 -207zM817 1190v237h291v-237
h-291zM362 1190v237h291v-237h-291z" />
    <glyph glyph-name="igrave" unicode="&#xec;" horiz-adv-x="653" 
d="M131 0v1028h393v-1028h-393zM535 1165h-178l-447 285h357z" />
    <glyph glyph-name="iacute" unicode="&#xed;" horiz-adv-x="653" 
d="M131 0v1028h393v-1028h-393zM121 1165l268 285h357l-447 -285h-178z" />
    <glyph glyph-name="icircumflex" unicode="&#xee;" horiz-adv-x="653" 
d="M131 0v1028h393v-1028h-393zM-88 1165l269 285h294l269 -285h-178l-238 160l-238 -160h-178z" />
    <glyph glyph-name="idieresis" unicode="&#xef;" horiz-adv-x="653" 
d="M131 0v1028h393v-1028h-393zM410 1190v237h291v-237h-291zM-45 1190v237h291v-237h-291z" />
    <glyph glyph-name="eth" unicode="&#xf0;" horiz-adv-x="1597" 
d="M500 537q0 -125 77 -198t203 -73q289 0 289 285q0 134 -75 206t-210 72q-137 0 -210.5 -77t-73.5 -215zM1075 874q0 90 12 154h385q-14 -112 -14 -233v-525q0 -159 -11 -237q-20 -136 -83 -219q-165 -217 -629 -217q-577 0 -583 362h388q8 -139 208 -139q317 0 317 307
v86q-152 -174 -438 -174q-232 0 -379 133q-152 138 -152 367q0 247 153 383q146 131 396 131q245 0 430 -179zM387 1446h166q28 -129 246 -129q219 0 246 129h164q-39 -279 -410 -279q-373 0 -412 279z" />
    <glyph glyph-name="ntilde" unicode="&#xf1;" horiz-adv-x="1542" 
d="M137 0v786q0 142 -12 242h395q10 -80 10 -164q179 189 443 189q206 0 324 -108q122 -112 122 -316v-629h-395v610q0 211 -217 211q-277 0 -277 -299v-522h-393zM1203 1434q-54 -226 -273 -226q-46 0 -78 9l-173 32q-32 6 -54 6q-90 0 -121 -71h-125q66 219 265 219
q46 0 86 -8l163 -33q30 -6 68 -6q87 0 115 78h127z" />
    <glyph glyph-name="ograve" unicode="&#xf2;" horiz-adv-x="1540" 
d="M752 -25q-302 0 -476 117q-204 137 -204 424t213 424q178 115 483 115q307 0 485 -116q213 -138 213 -427q0 -537 -714 -537zM772 205q138 0 213 92q70 86 70 227q0 143 -70 230q-76 94 -215 94q-143 0 -217 -91q-68 -84 -68 -231q0 -321 287 -321zM977 1165h-178
l-447 285h357z" />
    <glyph glyph-name="oacute" unicode="&#xf3;" horiz-adv-x="1540" 
d="M752 -25q-302 0 -476 117q-204 137 -204 424t213 424q178 115 483 115q307 0 485 -116q213 -138 213 -427q0 -537 -714 -537zM772 205q138 0 213 92q70 86 70 227q0 143 -70 230q-76 94 -215 94q-143 0 -217 -91q-68 -84 -68 -231q0 -321 287 -321zM563 1165l268 285h357
l-447 -285h-178z" />
    <glyph glyph-name="ocircumflex" unicode="&#xf4;" horiz-adv-x="1540" 
d="M752 -25q-302 0 -476 117q-204 137 -204 424t213 424q178 115 483 115q307 0 485 -116q213 -138 213 -427q0 -537 -714 -537zM772 205q138 0 213 92q70 86 70 227q0 143 -70 230q-76 94 -215 94q-143 0 -217 -91q-68 -84 -68 -231q0 -321 287 -321zM354 1165l269 285h294
l269 -285h-178l-238 160l-238 -160h-178z" />
    <glyph glyph-name="otilde" unicode="&#xf5;" horiz-adv-x="1540" 
d="M752 -25q-302 0 -476 117q-204 137 -204 424t213 424q178 115 483 115q307 0 485 -116q213 -138 213 -427q0 -537 -714 -537zM772 205q138 0 213 92q70 86 70 227q0 143 -70 230q-76 94 -215 94q-143 0 -217 -91q-68 -84 -68 -231q0 -321 287 -321zM1182 1434
q-54 -226 -273 -226q-46 0 -78 9l-173 32q-32 6 -54 6q-90 0 -121 -71h-125q66 219 265 219q46 0 86 -8l163 -33q30 -6 68 -6q87 0 115 78h127z" />
    <glyph glyph-name="odieresis" unicode="&#xf6;" horiz-adv-x="1540" 
d="M752 -25q-302 0 -476 117q-204 137 -204 424t213 424q178 115 483 115q307 0 485 -116q213 -138 213 -427q0 -537 -714 -537zM772 205q138 0 213 92q70 86 70 227q0 143 -70 230q-76 94 -215 94q-143 0 -217 -91q-68 -84 -68 -231q0 -321 287 -321zM852 1190v237h291
v-237h-291zM397 1190v237h291v-237h-291z" />
    <glyph glyph-name="divide" unicode="&#xf7;" horiz-adv-x="1706" 
d="M854 371q69 0 116.5 -48.5t47.5 -117.5t-47.5 -116.5t-116.5 -47.5t-117.5 47.5t-48.5 116.5q0 68 49 117t117 49zM254 727h1198v-231h-1198v231zM854 1182q68 0 116 -49t48 -117q0 -69 -48.5 -116.5t-117.5 -47.5t-116.5 47.5t-47.5 116.5q0 68 49 117t117 49z" />
    <glyph glyph-name="oslash" unicode="&#xf8;" horiz-adv-x="1540" 
d="M127 -49l137 145q-190 150 -190 412q0 290 210 430q179 119 484 119q175 0 330 -45l162 174l108 -92l-135 -142q231 -144 231 -434q0 -547 -706 -547q-205 0 -365 58l-160 -172zM592 244q61 -49 180 -49q141 0 221 94q74 89 74 233q0 109 -45 197zM502 358l424 461
q-66 39 -156 39q-149 0 -226 -97q-69 -87 -69 -241q0 -89 27 -162z" />
    <glyph glyph-name="ugrave" unicode="&#xf9;" horiz-adv-x="1542" 
d="M1016 0q-10 84 -10 164q-183 -189 -443 -189q-215 0 -330.5 114t-115.5 329v610h395v-596q0 -225 221 -225q273 0 273 301v520h393v-784q0 -80 10 -220q2 -28 2 -24h-395zM979 1165h-178l-447 285h357z" />
    <glyph glyph-name="uacute" unicode="&#xfa;" horiz-adv-x="1542" 
d="M1016 0q-10 84 -10 164q-183 -189 -443 -189q-215 0 -330.5 114t-115.5 329v610h395v-596q0 -225 221 -225q273 0 273 301v520h393v-784q0 -80 10 -220q2 -28 2 -24h-395zM565 1165l268 285h357l-447 -285h-178z" />
    <glyph glyph-name="ucircumflex" unicode="&#xfb;" horiz-adv-x="1542" 
d="M1016 0q-10 84 -10 164q-183 -189 -443 -189q-215 0 -330.5 114t-115.5 329v610h395v-596q0 -225 221 -225q273 0 273 301v520h393v-784q0 -80 10 -220q2 -28 2 -24h-395zM356 1165l269 285h294l269 -285h-178l-238 160l-238 -160h-178z" />
    <glyph glyph-name="udieresis" unicode="&#xfc;" horiz-adv-x="1542" 
d="M1016 0q-10 84 -10 164q-183 -189 -443 -189q-215 0 -330.5 114t-115.5 329v610h395v-596q0 -225 221 -225q273 0 273 301v520h393v-784q0 -80 10 -220q2 -28 2 -24h-395zM854 1190v237h291v-237h-291zM399 1190v237h291v-237h-291z" />
    <glyph glyph-name="yacute" unicode="&#xfd;" horiz-adv-x="653" 
d="M131 0v1028h393v-1028h-393z" />
    <glyph glyph-name="thorn" unicode="&#xfe;" horiz-adv-x="1294" 
d="M70 326h391q0 -138 190 -138q178 0 178 107q0 82 -214 109q-22 3 -58 8q-216 28 -300 71q-144 73 -144 244q0 326 518 326q246 0 374 -52q195 -79 195 -286h-385v4q0 127 -170 127q-153 0 -153 -84q0 -72 215 -107q27 -5 71 -12q218 -36 293 -71q148 -71 148 -232
q0 -365 -580 -365q-248 0 -374 56q-181 82 -195 295zM354 -397v116q213 -38 344 -38q109 0 109 67q0 62 -152 62q-44 0 -74 -2v192h111v-82h31q305 0 305 -174q0 -180 -322 -180q-155 0 -352 39z" />
    <glyph glyph-name="ydieresis" unicode="&#xff;" horiz-adv-x="1366" 
d="M256 -389l233 405l-522 1012h432l299 -682l320 682h377l-729 -1417h-410zM766 1190v237h291v-237h-291zM311 1190v237h291v-237h-291z" />
    <glyph glyph-name="Cacute" unicode="&#x106;" horiz-adv-x="1712" 
d="M1644 514q-18 -539 -722 -539q-392 0 -606 181q-228 195 -228 579q0 388 238 581q218 177 616 177q650 0 696 -504h-421q-34 209 -302 209q-401 0 -401 -455q0 -467 379 -467q295 0 328 238h423zM676 1611l268 285h357l-447 -285h-178z" />
    <glyph glyph-name="cacute" unicode="&#x107;" horiz-adv-x="1434" 
d="M961 666q-26 168 -226 168q-134 0 -200 -102q-56 -86 -56 -228q0 -293 254 -293q226 0 230 190h405q-22 -424 -639 -424q-290 0 -459 113q-198 133 -198 408q0 286 199 431q176 128 474 128q568 0 609 -391h-393zM530 1165l268 285h357l-447 -285h-178z" />
    <glyph glyph-name="Ccaron" unicode="&#x10c;" horiz-adv-x="1712" 
d="M1644 514q-18 -539 -722 -539q-392 0 -606 181q-228 195 -228 579q0 388 238 581q218 177 616 177q650 0 696 -504h-421q-34 209 -302 209q-401 0 -401 -455q0 -467 379 -467q295 0 328 238h423zM467 1896h178l238 -158l238 158h178l-269 -285h-294z" />
    <glyph glyph-name="ccaron" unicode="&#x10d;" horiz-adv-x="1434" 
d="M961 666q-26 168 -226 168q-134 0 -200 -102q-56 -86 -56 -228q0 -293 254 -293q226 0 230 190h405q-22 -424 -639 -424q-290 0 -459 113q-198 133 -198 408q0 286 199 431q176 128 474 128q568 0 609 -391h-393zM321 1450h178l238 -158l238 158h178l-269 -285h-294z" />
    <glyph glyph-name="dcroat" unicode="&#x111;" horiz-adv-x="1597" 
d="M1450 1475v-156h137v-156h-137v-930q0 -105 16 -233h-397q-12 76 -12 160v33q-163 -218 -447 -218q-250 0 -388 150q-134 144 -134 397q0 246 141 389.5t387 143.5q261 0 441 -174v282h-406v156h406v156h393zM772 848q-133 0 -207 -88q-71 -82 -71 -217q0 -148 67 -234
q74 -96 217 -96q140 0 214 89q69 83 69 226q0 320 -289 320z" />
    <glyph glyph-name="Gbreve" unicode="&#x11e;" horiz-adv-x="1849" 
d="M1331 303v244h-370v276h786v-747q-325 -101 -717 -101q-942 0 -942 750q0 393 260 591q232 177 639 177q730 0 760 -489h-451q-5 115 -110 173q-85 46 -211 46q-222 0 -340 -127q-113 -124 -113 -348q0 -488 496 -488q143 0 313 43zM514 1892h166q28 -129 246 -129
q219 0 246 129h164q-39 -279 -410 -279q-373 0 -412 279z" />
    <glyph glyph-name="gbreve" unicode="&#x11f;" horiz-adv-x="1597" 
d="M500 537q0 -125 77 -198t203 -73q289 0 289 285q0 134 -75 206t-210 72q-137 0 -210.5 -77t-73.5 -215zM1075 874q0 90 12 154h385q-14 -112 -14 -233v-525q0 -159 -11 -237q-20 -136 -83 -219q-165 -217 -629 -217q-577 0 -583 362h388q8 -139 208 -139q317 0 317 307
v86q-152 -174 -438 -174q-232 0 -379 133q-152 138 -152 367q0 247 153 383q146 131 396 131q245 0 430 -179zM387 1446h166q28 -129 246 -129q219 0 246 129h164q-39 -279 -410 -279q-373 0 -412 279z" />
    <glyph glyph-name="Idotaccent" unicode="&#x130;" horiz-adv-x="768" 
d="M172 0v1475h422v-1475h-422zM233 1628v248h304v-248h-304z" />
    <glyph glyph-name="dotlessi" unicode="&#x131;" horiz-adv-x="653" 
d="M131 0v1028h393v-1028h-393z" />
    <glyph glyph-name="Lslash" unicode="&#x141;" horiz-adv-x="1391" 
d="M176 0v524l-166 -108v250l166 108v701h416v-480l377 244v-250l-377 -244v-423h776v-322h-1192z" />
    <glyph glyph-name="lslash" unicode="&#x142;" horiz-adv-x="692" 
d="M150 0v567l-142 -90v185l142 92v721h393v-510l141 90v-185l-141 -90v-780h-393z" />
    <glyph glyph-name="OE" unicode="&#x152;" horiz-adv-x="2660" 
d="M1300 307v871q-168 28 -307 28q-481 0 -481 -465q0 -462 465 -462q145 0 323 28zM1389 0q-79 0 -237.5 -9t-238.5 -9q-385 0 -581 172q-244 214 -244 598q0 368 232 560q214 177 591 177q66 0 198 -7t198 -7h1257v-314h-850v-256h807v-303h-807v-285h871v-317h-1196z" />
    <glyph glyph-name="oe" unicode="&#x153;" horiz-adv-x="2376" 
d="M1247 127q-174 -156 -497 -156q-305 0 -478 123q-200 143 -200 434q0 271 215 410q182 117 469 117q320 0 499 -158q166 156 478 156q594 0 594 -594v-29h-891q3 -116 80 -180q72 -62 190 -62q198 0 215 140h385q-15 -193 -208 -284q-147 -69 -367 -69q-330 0 -484 152z
M1438 635h501q-3 103 -75 157q-66 50 -172 50t-174 -50q-75 -55 -80 -157zM766 205q136 0 209 94q67 85 67 225q0 141 -67 228q-74 96 -211 96q-141 0 -213 -93q-66 -84 -66 -229q0 -321 281 -321z" />
    <glyph glyph-name="Scedilla" unicode="&#x15e;" horiz-adv-x="1589" 
d="M100 492h418v-15q0 -213 295 -213q266 0 266 154q0 112 -306 167l-95 17q-250 48 -366 117q-181 107 -181 311q0 259 229 376q174 89 461 89q283 0 433 -82q194 -106 208 -362h-397v4q0 164 -256 164t-256 -138q0 -105 296 -160q15 -3 81 -16q5 -1 17 -3
q326 -63 431 -154q125 -108 125 -297q0 -263 -238 -384q-182 -92 -474 -92q-691 0 -691 486v31zM502 -397v116q213 -38 344 -38q109 0 109 67q0 62 -152 62q-44 0 -74 -2v192h111v-82h31q305 0 305 -174q0 -180 -322 -180q-155 0 -352 39z" />
    <glyph glyph-name="scedilla" unicode="&#x15f;" horiz-adv-x="1294" 
d="M70 326h391q0 -138 190 -138q178 0 178 107q0 82 -214 109q-22 3 -58 8q-216 28 -300 71q-144 73 -144 244q0 326 518 326q246 0 374 -52q195 -79 195 -286h-385v4q0 127 -170 127q-153 0 -153 -84q0 -72 215 -107q27 -5 71 -12q218 -36 293 -71q148 -71 148 -232
q0 -365 -580 -365q-248 0 -374 56q-181 82 -195 295zM354 -397v116q213 -38 344 -38q109 0 109 67q0 62 -152 62q-44 0 -74 -2v192h111v-82h31q305 0 305 -174q0 -180 -322 -180q-155 0 -352 39z" />
    <glyph glyph-name="Scaron" unicode="&#x160;" horiz-adv-x="1589" 
d="M100 492h418v-15q0 -213 295 -213q266 0 266 154q0 112 -306 167l-95 17q-250 48 -366 117q-181 107 -181 311q0 259 229 376q174 89 461 89q283 0 433 -82q194 -106 208 -362h-397v4q0 164 -256 164t-256 -138q0 -105 296 -160q15 -3 81 -16q5 -1 17 -3
q326 -63 431 -154q125 -108 125 -297q0 -263 -238 -384q-182 -92 -474 -92q-691 0 -691 486v31zM379 1896h178l238 -158l238 158h178l-269 -285h-294z" />
    <glyph glyph-name="scaron" unicode="&#x161;" horiz-adv-x="1294" 
d="M70 326h391q0 -138 190 -138q178 0 178 107q0 82 -214 109q-22 3 -58 8q-216 28 -300 71q-144 73 -144 244q0 326 518 326q246 0 374 -52q195 -79 195 -286h-385v4q0 127 -170 127q-153 0 -153 -84q0 -72 215 -107q27 -5 71 -12q218 -36 293 -71q148 -71 148 -232
q0 -365 -580 -365q-248 0 -374 56q-181 82 -195 295zM231 1450h178l238 -158l238 158h178l-269 -285h-294z" />
    <glyph glyph-name="Ydieresis" unicode="&#x178;" horiz-adv-x="1548" 
d="M567 0v530l-665 945h493l410 -611l391 611h455l-666 -951v-524h-418zM856 1636v237h291v-237h-291zM401 1636v237h291v-237h-291z" />
    <glyph glyph-name="Zcaron" unicode="&#x17d;" horiz-adv-x="1636" 
d="M96 0v375l932 801h-870v299h1353v-379l-919 -789h944v-307h-1440zM403 1896h178l238 -158l238 158h178l-269 -285h-294z" />
    <glyph glyph-name="zcaron" unicode="&#x17e;" horiz-adv-x="1298" 
d="M92 0v293l633 498h-582v237h1039v-260l-647 -516h694v-252h-1137zM233 1450h178l238 -158l238 158h178l-269 -285h-294z" />
    <glyph glyph-name="florin" unicode="&#x192;" horiz-adv-x="1554" 
d="M72 -342l35 223q78 -22 149 -22q98 0 150 55q43 46 72 235l11 74l84 527h-301l37 237h297q26 260 147 363q116 100 380 100q138 0 297 -35l-35 -223q-94 25 -152 25q-186 0 -213 -230h332l-37 -237h-328l-102 -648q-22 -137 -35 -186q-29 -107 -84 -166
q-119 -127 -409 -127q-132 0 -295 35z" />
    <glyph glyph-name="circumflex" unicode="&#x2c6;" 
d="M96 1165l269 285h294l269 -285h-178l-238 160l-238 -160h-178z" />
    <glyph glyph-name="caron" unicode="&#x2c7;" 
d="M96 1450h178l238 -158l238 158h178l-269 -285h-294z" />
    <glyph glyph-name="breve" unicode="&#x2d8;" 
d="M100 1446h166q28 -129 246 -129q219 0 246 129h164q-39 -279 -410 -279q-373 0 -412 279z" />
    <glyph glyph-name="dotaccent" unicode="&#x2d9;" 
d="M360 1182v248h304v-248h-304z" />
    <glyph glyph-name="ring" unicode="&#x2da;" 
d="M840 1352q0 -199 -328 -199t-328 199q0 198 328 198t328 -198zM637 1354q0 119 -125 119q-127 0 -127 -119q0 -121 127 -121q125 0 125 121z" />
    <glyph glyph-name="ogonek" unicode="&#x2db;" 
d="M657 0q-161 -91 -161 -190q0 -72 104 -72h129v-160h-135q-301 0 -301 172q0 120 239 250h125z" />
    <glyph glyph-name="tilde" unicode="&#x2dc;" 
d="M924 1434q-54 -226 -273 -226q-46 0 -78 9l-173 32q-32 6 -54 6q-90 0 -121 -71h-125q66 219 265 219q46 0 86 -8l163 -33q30 -6 68 -6q87 0 115 78h127z" />
    <glyph glyph-name="hungarumlaut" unicode="&#x2dd;" 
d="M557 1163l211 285h313l-389 -285h-135zM176 1163l170 285h301l-352 -285h-119z" />
    <glyph glyph-name="Delta" unicode="&#x394;" horiz-adv-x="1468" 
d="M733 1059l-262 -774h526zM537 1473h395l541 -1473h-1475z" />
    <glyph glyph-name="Delta" unicode="&#x2206;" horiz-adv-x="1468" 
d="M733 1059l-262 -774h526zM537 1473h395l541 -1473h-1475z" />
    <glyph glyph-name="Omega" unicode="&#x3a9;" horiz-adv-x="1645" 
d="M1266 307h333v-307h-636v352q192 171 192 443q0 170 -80 277q-89 118 -254 118q-164 0 -254 -120q-80 -107 -80 -277q0 -275 193 -441v-352h-635v307h332q-268 193 -268 529q0 311 202 496q195 179 510 179q317 0 511 -178q202 -184 202 -497q0 -336 -268 -529z" />
    <glyph glyph-name="Omega" unicode="&#x2126;" horiz-adv-x="1645" 
d="M1266 307h333v-307h-636v352q192 171 192 443q0 170 -80 277q-89 118 -254 118q-164 0 -254 -120q-80 -107 -80 -277q0 -275 193 -441v-352h-635v307h332q-268 193 -268 529q0 311 202 496q195 179 510 179q317 0 511 -178q202 -184 202 -497q0 -336 -268 -529z" />
    <glyph glyph-name="pi" unicode="&#x3c0;" horiz-adv-x="1530" 
d="M1538 1090l-39 -232h-178l-135 -858h-357l134 858h-232l-135 -858h-354l133 858h-27q-90 0 -107 -133h-235q33 211 127 288t309 77h1096z" />
    <glyph glyph-name="endash" unicode="&#x2013;" 
d="M0 383v262h1024v-262h-1024z" />
    <glyph glyph-name="emdash" unicode="&#x2014;" horiz-adv-x="2048" 
d="M0 645h2048v-262h-2048v262z" />
    <glyph glyph-name="quoteleft" unicode="&#x2018;" horiz-adv-x="778" 
d="M639 1475l-154 -527h-395l279 527h270z" />
    <glyph glyph-name="quoteright" unicode="&#x2019;" horiz-adv-x="778" 
d="M113 948l155 527h394l-279 -527h-270z" />
    <glyph glyph-name="quotesinglbase" unicode="&#x201a;" horiz-adv-x="778" 
d="M86 -231l156 526h395l-279 -526h-272z" />
    <glyph glyph-name="quotedblleft" unicode="&#x201c;" horiz-adv-x="1290" 
d="M657 1475l-155 -527h-396l279 527h272zM1161 1475l-155 -527h-396l279 527h272z" />
    <glyph glyph-name="quotedblright" unicode="&#x201d;" horiz-adv-x="1290" 
d="M627 948l155 527h396l-279 -527h-272zM123 948l156 527h395l-279 -527h-272z" />
    <glyph glyph-name="quotedblbase" unicode="&#x201e;" horiz-adv-x="1290" 
d="M623 -190l155 526h396l-279 -526h-272zM119 -190l155 526h396l-279 -526h-272z" />
    <glyph glyph-name="dagger" unicode="&#x2020;" horiz-adv-x="1255" 
d="M442 0v891h-381v299h381v285h371v-285h383v-299h-383v-891h-371z" />
    <glyph glyph-name="daggerdbl" unicode="&#x2021;" horiz-adv-x="1255" 
d="M451 0v303h-385v283h385v319h-385v285h385v285h358v-285h381v-285h-381v-317h381v-283h-381v-305h-358z" />
    <glyph glyph-name="bullet" unicode="&#x2022;" horiz-adv-x="1208" 
d="M307 762q0 124 86.5 209.5t210.5 85.5q123 0 209 -86t86 -209t-87 -210t-210 -87q-124 0 -209.5 86.5t-85.5 210.5z" />
    <glyph glyph-name="ellipsis" unicode="&#x2026;" horiz-adv-x="2048" 
d="M139 0v322h404v-322h-404zM821 0v322h404v-322h-404zM1505 0v322h404v-322h-404z" />
    <glyph glyph-name="perthousand" unicode="&#x2030;" horiz-adv-x="2920" 
d="M2302 383q0 -104 26 -151q34 -64 128 -64q92 0 128 65q27 48 27 150q0 217 -155 217q-93 0 -128 -66q-26 -48 -26 -151zM2060 383q0 383 398 383q397 0 397 -383t-397 -383q-398 0 -398 383zM1391 383q0 -103 26 -151q36 -64 129 -64q92 0 128 65q26 48 26 150
q0 217 -154 217q-92 0 -128 -66q-27 -49 -27 -151zM1151 383q0 383 395 383q398 0 398 -383t-398 -383q-395 0 -395 383zM307 1044q0 -103 27 -152q36 -65 129 -65q92 0 127 66q26 49 26 151q0 218 -153 218q-156 0 -156 -218zM66 1044q0 383 397 383t397 -383
q0 -385 -397 -385t-397 385zM588 -25h-234l1071 1475h234z" />
    <glyph glyph-name="guilsinglleft" unicode="&#x2039;" horiz-adv-x="682" 
d="M76 514l239 393h338l-227 -393l227 -393h-338z" />
    <glyph glyph-name="guilsinglright" unicode="&#x203a;" horiz-adv-x="682" 
d="M606 514l-239 -393h-338l227 393l-227 393h338z" />
    <glyph glyph-name="fraction" unicode="&#x2044;" horiz-adv-x="342" 
d="M475 1450h207l-817 -1475h-207z" />
    <glyph glyph-name="franc" unicode="&#x20a3;" horiz-adv-x="2484" 
d="M166 0v1475h1249v-314h-837v-297h792v-311h-792v-553h-412zM2442 701q-62 10 -123 10q-314 0 -314 -353v-358h-393v786q0 142 -12 242h385q8 -70 8 -156v-47q118 215 408 215h41v-339z" />
    <glyph glyph-name="trademark" unicode="&#x2122;" horiz-adv-x="1706" 
d="M797 1464h223l113 -303l114 303h221v-551h-155v390l-146 -390h-65l-150 390v-390h-155v551zM188 1464h502v-127h-164v-424h-174v424h-164v127z" />
    <glyph glyph-name="partialdiff" unicode="&#x2202;" horiz-adv-x="1114" 
d="M766 684q43 231 43 356q0 63 -20 125q-28 84 -78 84q-27 0 -131 -93t-181 -93q-49 0 -80.5 34t-31.5 83q0 86 120 139q95 43 193 43q234 0 354 -192q101 -161 101 -410q0 -304 -135 -524q-159 -261 -445 -261q-183 0 -299.5 116.5t-116.5 299.5q0 193 111 327
q118 142 307 142q194 0 289 -176zM698 532q0 238 -141 238q-121 0 -182 -193q-43 -136 -43 -290q0 -236 143 -236q122 0 182 192q41 133 41 289z" />
    <glyph glyph-name="product" unicode="&#x220f;" horiz-adv-x="1645" 
d="M145 1473h1348v-1866h-399v1532h-549v-1532h-400v1866z" />
    <glyph glyph-name="summation" unicode="&#x2211;" horiz-adv-x="1520" 
d="M72 1473h1335v-302h-838l596 -608l-587 -651h895v-305h-1424v184l684 756l-661 665v261z" />
    <glyph glyph-name="minus" unicode="&#x2212;" horiz-adv-x="1706" 
d="M254 729h1198v-235h-1198v235z" />
    <glyph glyph-name="radical" unicode="&#x221a;" horiz-adv-x="1366" 
d="M1155 1714h215v-149h-96l-590 -1606h-119l-307 846l-145 -55l-37 129l360 127l223 -635z" />
    <glyph glyph-name="infinity" unicode="&#x221e;" horiz-adv-x="1706" 
d="M956 561q87 -135 234 -135q86 0 142 46q61 50 61 134q0 77 -51 127.5t-128 50.5q-136 0 -258 -223zM752 657q-86 134 -234 134q-86 0 -142 -46q-61 -49 -61 -133q0 -77 51 -127.5t128 -50.5q135 0 258 223zM856 442q-134 -256 -324 -256q-155 0 -251 138q-86 123 -86 284
q0 167 72 283q86 139 243 139q105 0 200 -84q60 -53 142 -172q139 258 324 258q156 0 252 -138q85 -122 85 -284q0 -167 -72 -284q-86 -140 -243 -140q-107 0 -200 83q-58 52 -142 173z" />
    <glyph glyph-name="integral" unicode="&#x222b;" horiz-adv-x="1249" 
d="M362 -248q99 0 119 667l4 154q13 404 75 609q113 374 405 374q96 0 161 -46q74 -52 74 -144q0 -65 -41 -104t-106 -39q-129 0 -129 151q0 60 -33 60q-101 0 -124 -667l-3 -91q-10 -288 -16 -363q-19 -212 -72 -354q-124 -332 -389 -332q-98 0 -163 45q-73 52 -73 146
q0 67 43 105t111 38q125 0 125 -139q0 -12 -2 -24v-3q0 -43 34 -43z" />
    <glyph glyph-name="approxequal" unicode="&#x2248;" horiz-adv-x="1706" 
d="M1530 602v-254q-203 -137 -377 -137q-91 0 -289 65.5t-303 65.5q-157 0 -383 -158v254q216 144 404 144q104 0 299 -65.5t278 -65.5q158 0 371 151zM1530 1036v-254q-206 -135 -375 -135q-92 0 -290 64.5t-304 64.5q-157 0 -383 -158v256q215 142 404 142
q104 0 299 -65.5t278 -65.5q158 0 371 151z" />
    <glyph glyph-name="approxequal" unicode="&#x22f2;" horiz-adv-x="1706" 
d="M1530 602v-254q-203 -137 -377 -137q-91 0 -289 65.5t-303 65.5q-157 0 -383 -158v254q216 144 404 144q104 0 299 -65.5t278 -65.5q158 0 371 151zM1530 1036v-254q-206 -135 -375 -135q-92 0 -290 64.5t-304 64.5q-157 0 -383 -158v256q215 142 404 142
q104 0 299 -65.5t278 -65.5q158 0 371 151z" />
    <glyph glyph-name="notequal" unicode="&#x2260;" horiz-adv-x="1706" 
d="M1194 1251l168 -137l-135 -168h225v-221h-377l-180 -227h557v-222h-704l-246 -307l-170 137l135 170h-213v222h360l183 227h-543v221h694z" />
    <glyph glyph-name="lessequal" unicode="&#x2264;" horiz-adv-x="1706" 
d="M256 213h1196v-229h-1196v229zM1450 1257v-239l-776 -240l776 -239v-240l-1194 379v201z" />
    <glyph glyph-name="greaterequal" unicode="&#x2265;" horiz-adv-x="1706" 
d="M256 213h1196v-229h-1196v229zM258 1257l1192 -378v-201l-1192 -379v240l776 239l-776 240v239z" />
    <glyph glyph-name="lozenge" unicode="&#x25ca;" horiz-adv-x="1012" 
d="M506 1409l-385 -817l385 -825l385 825zM506 1653l500 -1061l-500 -1069l-500 1069z" />
    <glyph glyph-name="apple" unicode="&#xf000;" horiz-adv-x="1618" 
d="M836 1216q-2 12 -2 37q0 132 101 237q96 99 230 124q2 -20 2 -62q0 -117 -94 -226q-97 -112 -213 -112h-8q-3 0 -8 1t-8 1zM1505 403q-90 -196 -152 -279q-118 -159 -257 -159q-46 0 -130 33t-124 33q-44 0 -130 -33t-128 -33q-129 0 -258 176q-213 291 -213 596
q0 211 117 348q124 146 331 146q57 0 149.5 -34t129.5 -34q32 0 124.5 35t149.5 35q216 0 359 -164q-201 -128 -201 -328q0 -233 233 -338z" />
    <glyph glyph-name="fi" unicode="&#xf001;" horiz-adv-x="1614" 
d="M1075 1186v291h424v-291h-424zM248 1169q0 188 140 266q108 60 314 60q138 0 240 -27v-217q-2 0 -22 1q-83 3 -99 3q-97 0 -133 -21q-49 -29 -49 -116v-90h303v-244h-303v-784h-391v784h-236v244h236v141zM1090 0v1028h395v-1028h-395z" />
    <glyph glyph-name="fl" unicode="&#xf002;" horiz-adv-x="1612" 
d="M248 1169q0 188 140 266q108 60 314 60q138 0 240 -27v-217q-2 0 -22 1q-83 3 -99 3q-97 0 -133 -21q-49 -29 -49 -116v-90h303v-244h-303v-784h-391v784h-236v244h236v141zM1087 0v1477h394v-1477h-394z" />
    <glyph glyph-name="periodcentered" horiz-adv-x="778" 
d="M207 715q0 76 53.5 128t130.5 52q75 0 127.5 -52.5t52.5 -127.5q0 -76 -52 -130.5t-128 -54.5q-77 0 -130.5 53.5t-53.5 131.5z" />
    <glyph glyph-name="glyph256" horiz-adv-x="778" 
 />
    <glyph glyph-name="glyph257" horiz-adv-x="778" 
 />
    </font>
</defs>
</svg>
